<?xml version="1.0" encoding="UTF-8"?>
<!-- Generator: Adobe Illustrator 16.0.0, SVG Export Plug-In . SVG Version: 6.00 Build 0)  -->
<!DOCTYPE svg PUBLIC "-//W3C//DTD SVG 1.1//EN" "http://www.w3.org/Graphics/SVG/1.1/DTD/svg11.dtd">
<svg version="1.1" id="Layer_1" xmlns="http://www.w3.org/2000/svg" xmlns:xlink="http://www.w3.org/1999/xlink" x="0px" y="0px" width="1201.89px" height="722.28px" viewBox="0 0 1201.89 722.28" enable-background="new 0 0 1201.89 722.28" xml:space="preserve">
<rect display="none" stroke="#000000" stroke-miterlimit="10" width="1201.89" height="726.107"/>
<g>
	<path fill="#FFFFFF" d="M139.105,431h-2.188v-16.101h2.188V431z M148.096,423.824h-9.209v-2.001h9.209V423.824z M147.899,414.899   h2.188V431h-2.188V414.899z"/>
	<path fill="#FFFFFF" d="M160.806,428.998h8.925V431h-11.112v-16.101h10.807v2.001h-8.619V428.998z M160.608,421.846h7.875v1.955   h-7.875V421.846z"/>
	<path fill="#FFFFFF" d="M177.212,431v-16.101h2.188v14.099h8.291V431H177.212z"/>
	<path fill="#FFFFFF" d="M194.144,431v-16.101h5.972c1.342,0,2.486,0.223,3.435,0.667c0.948,0.445,1.677,1.089,2.188,1.932   s0.766,1.848,0.766,3.013c0,1.165-0.255,2.166-0.766,3.001s-1.239,1.479-2.188,1.932c-0.948,0.453-2.093,0.678-3.435,0.678h-4.769   l0.984-1.081V431H194.144z M196.331,425.272l-0.984-1.15h4.703c1.4,0,2.461-0.314,3.183-0.943s1.083-1.518,1.083-2.668   c0-1.15-0.361-2.039-1.083-2.668s-1.782-0.943-3.183-0.943h-4.703l0.984-1.15V425.272z"/>
	<path fill="#FFFFFF" d="M213.656,431v-16.101h2.188V431H213.656z"/>
	<path fill="#FFFFFF" d="M224.375,431v-16.101h1.794l10.128,13.226h-0.94v-13.226h2.188V431h-1.794l-10.128-13.226h0.94V431H224.375   z"/>
	<path fill="#FFFFFF" d="M252.987,431.184c-1.181,0-2.268-0.203-3.259-0.609c-0.992-0.406-1.853-0.981-2.581-1.725   c-0.729-0.744-1.299-1.614-1.707-2.611c-0.408-0.996-0.612-2.093-0.612-3.289c0-1.196,0.204-2.292,0.612-3.289   s0.981-1.867,1.718-2.611c0.736-0.743,1.601-1.318,2.592-1.725c0.992-0.406,2.086-0.61,3.281-0.61c1.211,0,2.319,0.207,3.325,0.621   s1.859,1.035,2.56,1.863l-1.356,1.426c-0.627-0.644-1.309-1.115-2.045-1.415c-0.737-0.299-1.535-0.448-2.396-0.448   c-0.875,0-1.688,0.153-2.439,0.46s-1.399,0.736-1.946,1.288c-0.547,0.552-0.971,1.207-1.27,1.966   c-0.299,0.759-0.448,1.583-0.448,2.473c0,0.874,0.149,1.69,0.448,2.449c0.299,0.759,0.723,1.418,1.27,1.978   c0.547,0.561,1.191,0.993,1.936,1.299c0.744,0.308,1.553,0.461,2.428,0.461c0.817,0,1.601-0.135,2.352-0.402   c0.751-0.269,1.447-0.717,2.09-1.346l1.246,1.748c-0.758,0.675-1.644,1.184-2.657,1.529S254.066,431.184,252.987,431.184z    M256.685,428.838v-5.98h2.1v6.279L256.685,428.838z"/>
	<path fill="#FFFFFF" d="M276.723,431v-16.101h5.972c1.342,0,2.486,0.223,3.435,0.667c0.948,0.445,1.677,1.089,2.188,1.932   s0.766,1.848,0.766,3.013c0,1.165-0.255,2.166-0.766,3.001s-1.239,1.479-2.188,1.932c-0.948,0.453-2.093,0.678-3.435,0.678h-4.769   l0.984-1.081V431H276.723z M278.91,425.272l-0.984-1.15h4.703c1.4,0,2.461-0.314,3.183-0.943s1.083-1.518,1.083-2.668   c0-1.15-0.361-2.039-1.083-2.668s-1.782-0.943-3.183-0.943h-4.703l0.984-1.15V425.272z"/>
	<path fill="#FFFFFF" d="M298.423,428.998h8.925V431h-11.112v-16.101h10.807v2.001h-8.619V428.998z M298.226,421.846h7.875v1.955   h-7.875V421.846z"/>
	<path fill="#FFFFFF" d="M314.829,431v-16.101h5.972c1.342,0,2.486,0.223,3.435,0.667c0.948,0.445,1.677,1.089,2.188,1.932   s0.766,1.848,0.766,3.013c0,1.165-0.255,2.166-0.766,3.001s-1.239,1.476-2.188,1.92s-2.093,0.667-3.435,0.667h-4.769l0.984-1.058   V431H314.829z M317.017,425.272l-0.984-1.127h4.703c1.4,0,2.461-0.318,3.183-0.955c0.722-0.636,1.083-1.529,1.083-2.679   c0-1.15-0.361-2.039-1.083-2.668s-1.782-0.943-3.183-0.943h-4.703l0.984-1.15V425.272z M325.066,431l-3.894-5.842h2.341   l3.938,5.842H325.066z"/>
	<path fill="#FFFFFF" d="M336.857,431h-2.188v-16.101h10.807v2.001h-8.619V431z M336.639,422.513h7.896v1.978h-7.896V422.513z"/>
	<path fill="#FFFFFF" d="M359.235,431.184c-1.166,0-2.249-0.207-3.248-0.621s-1.863-0.992-2.592-1.736   c-0.729-0.744-1.299-1.613-1.707-2.611c-0.408-0.996-0.612-2.084-0.612-3.265s0.204-2.27,0.612-3.266s0.978-1.867,1.707-2.61   c0.729-0.744,1.589-1.323,2.581-1.737c0.991-0.414,2.078-0.621,3.259-0.621c1.167,0,2.242,0.204,3.227,0.61   s1.845,0.981,2.582,1.725c0.736,0.744,1.305,1.614,1.706,2.611c0.4,0.997,0.602,2.093,0.602,3.289c0,1.196-0.201,2.292-0.602,3.289   c-0.401,0.997-0.97,1.867-1.706,2.611c-0.737,0.743-1.598,1.318-2.582,1.725S360.402,431.184,359.235,431.184z M359.235,429.137   c0.846,0,1.63-0.153,2.352-0.461c0.723-0.306,1.35-0.738,1.882-1.299c0.532-0.56,0.947-1.215,1.247-1.966   c0.299-0.751,0.448-1.572,0.448-2.461s-0.149-1.71-0.448-2.461c-0.3-0.751-0.715-1.406-1.247-1.966   c-0.532-0.56-1.159-0.993-1.882-1.299c-0.722-0.307-1.506-0.46-2.352-0.46c-0.86,0-1.651,0.153-2.373,0.46s-1.353,0.74-1.893,1.299   c-0.539,0.56-0.959,1.215-1.258,1.966c-0.299,0.751-0.448,1.572-0.448,2.461s0.149,1.709,0.448,2.461s0.719,1.407,1.258,1.966   c0.54,0.561,1.171,0.993,1.893,1.299C357.584,428.983,358.375,429.137,359.235,429.137z"/>
	<path fill="#FFFFFF" d="M374.636,431v-16.101h5.972c1.342,0,2.486,0.223,3.435,0.667c0.948,0.445,1.677,1.089,2.188,1.932   s0.766,1.848,0.766,3.013c0,1.165-0.255,2.166-0.766,3.001s-1.239,1.476-2.188,1.92s-2.093,0.667-3.435,0.667h-4.769l0.984-1.058   V431H374.636z M376.823,425.272l-0.984-1.127h4.703c1.4,0,2.461-0.318,3.183-0.955c0.722-0.636,1.083-1.529,1.083-2.679   c0-1.15-0.361-2.039-1.083-2.668s-1.782-0.943-3.183-0.943h-4.703l0.984-1.15V425.272z M384.873,431l-3.894-5.842h2.341   l3.938,5.842H384.873z"/>
	<path fill="#FFFFFF" d="M394.477,431v-16.101h1.794l6.868,12.167h-0.962l6.781-12.167h1.794L410.773,431h-2.1l-0.022-12.627h0.503   l-6.037,10.672h-1.006l-6.082-10.672h0.547V431H394.477z"/>
	<path fill="#FFFFFF" d="M421.492,428.998h8.925V431h-11.112v-16.101h10.807v2.001h-8.619V428.998z M421.295,421.846h7.875v1.955   h-7.875V421.846z"/>
	<path fill="#FFFFFF" d="M437.898,431v-16.101h5.972c1.342,0,2.486,0.223,3.435,0.667c0.948,0.445,1.677,1.089,2.188,1.932   s0.766,1.848,0.766,3.013c0,1.165-0.255,2.166-0.766,3.001s-1.239,1.476-2.188,1.92s-2.093,0.667-3.435,0.667h-4.769l0.984-1.058   V431H437.898z M440.086,425.272l-0.984-1.127h4.703c1.4,0,2.461-0.318,3.183-0.955c0.722-0.636,1.083-1.529,1.083-2.679   c0-1.15-0.361-2.039-1.083-2.668s-1.782-0.943-3.183-0.943h-4.703l0.984-1.15V425.272z M448.136,431l-3.894-5.842h2.341   l3.938,5.842H448.136z"/>
	<path fill="#FFFFFF" d="M462.202,431.184c-1.167,0-2.283-0.188-3.348-0.563s-1.902-0.862-2.516-1.46l0.81-1.795   c0.583,0.537,1.327,0.982,2.231,1.334c0.904,0.354,1.845,0.529,2.822,0.529c0.889,0,1.611-0.107,2.165-0.322   c0.555-0.215,0.963-0.51,1.226-0.885c0.262-0.376,0.394-0.802,0.394-1.277c0-0.552-0.172-0.996-0.515-1.333   s-0.787-0.61-1.334-0.816c-0.547-0.207-1.148-0.387-1.805-0.541s-1.316-0.333-1.979-0.541c-0.664-0.207-1.269-0.472-1.815-0.793   c-0.547-0.322-0.988-0.755-1.324-1.3c-0.335-0.544-0.503-1.246-0.503-2.104c0-0.828,0.208-1.59,0.624-2.289   c0.415-0.697,1.057-1.257,1.925-1.679c0.867-0.422,1.972-0.633,3.313-0.633c0.89,0,1.772,0.123,2.647,0.368   c0.875,0.246,1.633,0.598,2.274,1.058l-0.722,1.84c-0.656-0.46-1.349-0.793-2.078-1s-1.437-0.311-2.122-0.311   c-0.86,0-1.567,0.115-2.121,0.345c-0.555,0.23-0.959,0.537-1.215,0.92c-0.255,0.383-0.383,0.813-0.383,1.288   c0,0.567,0.172,1.02,0.515,1.357c0.343,0.337,0.787,0.606,1.334,0.805s1.148,0.379,1.805,0.54c0.656,0.161,1.316,0.342,1.979,0.541   c0.664,0.2,1.27,0.46,1.816,0.782c0.547,0.322,0.987,0.751,1.323,1.288c0.335,0.537,0.503,1.227,0.503,2.07   c0,0.813-0.212,1.567-0.635,2.266s-1.075,1.257-1.957,1.679C464.655,430.973,463.543,431.184,462.202,431.184z"/>
	<path fill="#FFFFFF" d="M485.083,431v-16.101h6.869c1.764,0,3.12,0.372,4.068,1.116s1.422,1.759,1.422,3.047   c0,0.874-0.186,1.61-0.558,2.208s-0.872,1.058-1.499,1.38c-0.627,0.322-1.305,0.483-2.034,0.483l0.394-0.69   c0.875,0,1.648,0.161,2.319,0.483c0.671,0.322,1.203,0.794,1.597,1.415c0.394,0.621,0.591,1.392,0.591,2.312   c0,1.381-0.492,2.449-1.477,3.209c-0.984,0.759-2.446,1.139-4.386,1.139H485.083z M487.271,429.137h5.031   c1.21,0,2.137-0.215,2.778-0.645c0.642-0.429,0.962-1.104,0.962-2.023c0-0.936-0.32-1.618-0.962-2.047   c-0.642-0.429-1.568-0.644-2.778-0.644h-5.229v-1.863h4.682c1.108,0,1.969-0.214,2.581-0.644c0.612-0.429,0.919-1.073,0.919-1.932   c0-0.858-0.307-1.502-0.919-1.932s-1.473-0.644-2.581-0.644h-4.484V429.137z"/>
	<path fill="#FFFFFF" d="M505.58,431v-16.101h5.972c1.342,0,2.486,0.223,3.435,0.667c0.948,0.445,1.677,1.089,2.188,1.932   s0.766,1.848,0.766,3.013c0,1.165-0.255,2.166-0.766,3.001s-1.239,1.476-2.188,1.92s-2.093,0.667-3.435,0.667h-4.769l0.984-1.058   V431H505.58z M507.768,425.272l-0.984-1.127h4.703c1.4,0,2.461-0.318,3.183-0.955c0.722-0.636,1.083-1.529,1.083-2.679   c0-1.15-0.361-2.039-1.083-2.668s-1.782-0.943-3.183-0.943h-4.703l0.984-1.15V425.272z M515.817,431l-3.894-5.842h2.341   l3.938,5.842H515.817z"/>
	<path fill="#FFFFFF" d="M525.421,431v-16.101h2.188V431H525.421z"/>
	<path fill="#FFFFFF" d="M536.14,431v-16.101h1.794l10.128,13.226h-0.94v-13.226h2.188V431h-1.794l-10.128-13.226h0.94V431H536.14z"/>
	<path fill="#FFFFFF" d="M564.752,431.184c-1.181,0-2.268-0.203-3.259-0.609c-0.992-0.406-1.853-0.981-2.581-1.725   c-0.729-0.744-1.299-1.614-1.707-2.611c-0.408-0.996-0.612-2.093-0.612-3.289c0-1.196,0.204-2.292,0.612-3.289   s0.981-1.867,1.718-2.611c0.736-0.743,1.601-1.318,2.592-1.725c0.992-0.406,2.086-0.61,3.281-0.61c1.211,0,2.319,0.207,3.325,0.621   s1.859,1.035,2.56,1.863l-1.356,1.426c-0.627-0.644-1.309-1.115-2.045-1.415c-0.737-0.299-1.535-0.448-2.396-0.448   c-0.875,0-1.688,0.153-2.439,0.46s-1.399,0.736-1.946,1.288c-0.547,0.552-0.971,1.207-1.27,1.966   c-0.299,0.759-0.448,1.583-0.448,2.473c0,0.874,0.149,1.69,0.448,2.449c0.299,0.759,0.723,1.418,1.27,1.978   c0.547,0.561,1.191,0.993,1.936,1.299c0.744,0.308,1.553,0.461,2.428,0.461c0.817,0,1.601-0.135,2.352-0.402   c0.751-0.269,1.447-0.717,2.09-1.346l1.246,1.748c-0.758,0.675-1.644,1.184-2.657,1.529S565.831,431.184,564.752,431.184z    M568.449,428.838v-5.98h2.1v6.279L568.449,428.838z"/>
	<path fill="#FFFFFF" d="M591.528,431v-14.1h-5.25v-2.001h12.665v2.001h-5.25V431H591.528z"/>
	<path fill="#FFFFFF" d="M607.453,431h-2.188v-16.101h2.188V431z M616.443,423.824h-9.209v-2.001h9.209V423.824z M616.247,414.899   h2.188V431h-2.188V414.899z"/>
	<path fill="#FFFFFF" d="M629.153,428.998h8.925V431h-11.112v-16.101h10.807v2.001h-8.619V428.998z M628.956,421.846h7.875v1.955   h-7.875V421.846z"/>
	<path fill="#FFFFFF" d="M645.56,431v-16.101h2.188V431H645.56z"/>
	<path fill="#FFFFFF" d="M656.278,431v-16.101h5.972c1.342,0,2.486,0.223,3.435,0.667c0.948,0.445,1.677,1.089,2.188,1.932   s0.766,1.848,0.766,3.013c0,1.165-0.255,2.166-0.766,3.001s-1.239,1.476-2.188,1.92s-2.093,0.667-3.435,0.667h-4.769l0.984-1.058   V431H656.278z M658.466,425.272l-0.984-1.127h4.703c1.4,0,2.461-0.318,3.183-0.955c0.722-0.636,1.083-1.529,1.083-2.679   c0-1.15-0.361-2.039-1.083-2.668s-1.782-0.943-3.183-0.943h-4.703l0.984-1.15V425.272z M666.516,431l-3.894-5.842h2.341L668.9,431   H666.516z"/>
	<path fill="#FFFFFF" d="M683.623,431l6.934-16.101h2.166L699.679,431h-2.297l-6.19-14.813h0.875L685.876,431H683.623z    M686.576,426.975l0.59-1.84h8.619l0.635,1.84H686.576z"/>
	<path fill="#FFFFFF" d="M705.892,431v-16.101h5.972c1.342,0,2.486,0.223,3.435,0.667c0.948,0.445,1.677,1.089,2.188,1.932   s0.766,1.848,0.766,3.013c0,1.165-0.255,2.166-0.766,3.001s-1.239,1.476-2.188,1.92s-2.093,0.667-3.435,0.667h-4.769l0.984-1.058   V431H705.892z M708.079,425.272l-0.984-1.127h4.703c1.4,0,2.461-0.318,3.183-0.955c0.722-0.636,1.083-1.529,1.083-2.679   c0-1.15-0.361-2.039-1.083-2.668s-1.782-0.943-3.183-0.943h-4.703l0.984-1.15V425.272z M716.129,431l-3.894-5.842h2.341   l3.938,5.842H716.129z"/>
	<path fill="#FFFFFF" d="M728.555,431v-14.1h-5.25v-2.001h12.665v2.001h-5.25V431H728.555z"/>
	<path fill="#FFFFFF" d="M755.155,431v-14.1h-5.25v-2.001h12.665v2.001h-5.25V431H755.155z"/>
	<path fill="#FFFFFF" d="M775.586,431.184c-1.166,0-2.249-0.207-3.248-0.621s-1.863-0.992-2.592-1.736   c-0.729-0.744-1.299-1.613-1.707-2.611c-0.408-0.996-0.612-2.084-0.612-3.265s0.204-2.27,0.612-3.266s0.978-1.867,1.707-2.61   c0.729-0.744,1.589-1.323,2.581-1.737c0.991-0.414,2.078-0.621,3.259-0.621c1.167,0,2.242,0.204,3.227,0.61   s1.845,0.981,2.582,1.725c0.736,0.744,1.305,1.614,1.706,2.611c0.4,0.997,0.602,2.093,0.602,3.289c0,1.196-0.201,2.292-0.602,3.289   c-0.401,0.997-0.97,1.867-1.706,2.611c-0.737,0.743-1.598,1.318-2.582,1.725S776.753,431.184,775.586,431.184z M775.586,429.137   c0.846,0,1.63-0.153,2.352-0.461c0.723-0.306,1.35-0.738,1.882-1.299c0.532-0.56,0.947-1.215,1.247-1.966   c0.299-0.751,0.448-1.572,0.448-2.461s-0.149-1.71-0.448-2.461c-0.3-0.751-0.715-1.406-1.247-1.966   c-0.532-0.56-1.159-0.993-1.882-1.299c-0.722-0.307-1.506-0.46-2.352-0.46c-0.86,0-1.651,0.153-2.373,0.46s-1.353,0.74-1.893,1.299   c-0.539,0.56-0.959,1.215-1.258,1.966c-0.299,0.751-0.448,1.572-0.448,2.461s0.149,1.709,0.448,2.461s0.719,1.407,1.258,1.966   c0.54,0.561,1.171,0.993,1.893,1.299C773.935,428.983,774.726,429.137,775.586,429.137z"/>
	<path fill="#FFFFFF" d="M803.85,431v-14.1h-5.25v-2.001h12.665v2.001h-5.25V431H803.85z"/>
	<path fill="#FFFFFF" d="M819.774,431h-2.188v-16.101h2.188V431z M828.765,423.824h-9.209v-2.001h9.209V423.824z M828.568,414.899   h2.188V431h-2.188V414.899z"/>
	<path fill="#FFFFFF" d="M841.475,428.998h8.925V431h-11.112v-16.101h10.807v2.001h-8.619V428.998z M841.277,421.846h7.875v1.955   h-7.875V421.846z"/>
	<path fill="#FFFFFF" d="M871.225,431l-5.118-16.101h2.253l4.703,14.858h-1.138l4.878-14.858h2.013l4.769,14.858h-1.094l4.77-14.858   h2.078L884.219,431h-2.297l-4.463-13.777h0.591L873.565,431H871.225z"/>
	<path fill="#FFFFFF" d="M915.916,431v-16.101h5.972c1.342,0,2.486,0.223,3.435,0.667c0.948,0.445,1.677,1.089,2.188,1.932   s0.766,1.848,0.766,3.013c0,1.165-0.255,2.166-0.766,3.001s-1.239,1.476-2.188,1.92s-2.093,0.667-3.435,0.667h-4.769l0.984-1.058   V431H915.916z M918.104,425.272l-0.984-1.127h4.703c1.4,0,2.461-0.318,3.183-0.955c0.722-0.636,1.083-1.529,1.083-2.679   c0-1.15-0.361-2.039-1.083-2.668s-1.782-0.943-3.183-0.943h-4.703l0.984-1.15V425.272z M926.153,431l-3.894-5.842h2.341   l3.938,5.842H926.153z"/>
	<path fill="#FFFFFF" d="M935.757,431v-16.101h2.188v14.099h8.291V431H935.757z"/>
	<path fill="#FFFFFF" d="M952.689,431v-16.101h6.453c1.633,0,3.073,0.337,4.32,1.012s2.217,1.618,2.909,2.829   s1.039,2.614,1.039,4.209s-0.347,2.998-1.039,4.208c-0.692,1.212-1.662,2.154-2.909,2.829s-2.688,1.013-4.32,1.013H952.689z    M954.877,428.998h4.135c1.269,0,2.365-0.252,3.292-0.758c0.926-0.507,1.644-1.216,2.154-2.129   c0.511-0.912,0.766-1.966,0.766-3.162c0-1.211-0.255-2.27-0.766-3.174c-0.511-0.904-1.229-1.61-2.154-2.116   c-0.927-0.506-2.023-0.759-3.292-0.759h-4.135V428.998z"/>
</g>
<g>
	<g>
		<path fill="#FFFFFF" d="M139.222,372.14v-141h51.2c16.132,0,29.766,2.769,40.9,8.3c11.131,5.535,19.565,13.535,25.3,24    c5.731,10.469,8.6,23.169,8.6,38.1c0,14.8-2.868,27.469-8.6,38c-5.734,10.535-14.169,18.6-25.3,24.2    c-11.135,5.6-24.769,8.4-40.9,8.4H139.222z M165.022,350.74h23.8c17.065,0,29.731-4.066,38-12.2    c8.266-8.131,12.399-20.465,12.399-37c0-16.666-4.134-29.031-12.399-37.1c-8.269-8.065-20.935-12.1-38-12.1h-23.8V350.74z"/>
		<path fill="#FFFFFF" d="M332.421,374.14c-16.935,0-30.2-4.666-39.801-14c-9.6-9.331-14.399-22.131-14.399-38.4    c0-10.531,2.065-19.731,6.2-27.6c4.131-7.866,9.899-14,17.3-18.4c7.399-4.4,16.031-6.6,25.899-6.6c9.731,0,17.866,2.069,24.4,6.2    c6.531,4.134,11.5,9.934,14.9,17.4c3.399,7.469,5.1,16.2,5.1,26.2v6.6h-73.6v-13.2h55.8l-3.4,2.8c0-9.331-1.969-16.466-5.899-21.4    c-3.935-4.931-9.635-7.4-17.101-7.4c-8.269,0-14.634,2.934-19.1,8.8c-4.469,5.869-6.7,14.069-6.7,24.6v2.6    c0,10.934,2.7,19.1,8.1,24.5c5.4,5.4,13.031,8.1,22.9,8.1c5.731,0,11.1-0.766,16.1-2.3c5-1.531,9.766-4.031,14.301-7.5l7.399,16.8    c-4.8,3.869-10.534,6.869-17.2,9C346.952,373.071,339.886,374.14,332.421,374.14z"/>
		<path fill="#FFFFFF" d="M387.218,372.14v-75.8c0-4.131-0.134-8.332-0.399-12.6c-0.269-4.266-0.669-8.466-1.2-12.6h24.2l2,20h-2.4    c2.8-6.931,7.101-12.331,12.9-16.2c5.8-3.865,12.7-5.8,20.7-5.8s14.631,1.9,19.899,5.7c5.266,3.8,8.966,9.7,11.101,17.7h-3.2    c2.8-7.2,7.399-12.9,13.8-17.1c6.4-4.2,13.731-6.3,22-6.3c11.331,0,19.8,3.334,25.4,10c5.6,6.669,8.399,17.069,8.399,31.2v61.8    h-25v-60.8c0-8-1.334-13.766-4-17.3c-2.669-3.531-6.935-5.3-12.8-5.3c-6.935,0-12.4,2.434-16.4,7.3c-4,4.869-6,11.435-6,19.7v56.4    h-25v-60.8c0-8-1.334-13.766-4-17.3c-2.668-3.531-6.934-5.3-12.8-5.3c-6.935,0-12.368,2.434-16.3,7.3    c-3.935,4.869-5.9,11.435-5.9,19.7v56.4H387.218z"/>
	</g>
</g>
<g>
	<path fill="#FFFFFF" d="M723.896,376.054c-11.334,0-21.769-1.435-31.3-4.3c-9.534-2.866-17.7-6.832-24.5-11.9l8-20.2   c4.531,3.2,9.266,5.9,14.2,8.1c4.931,2.2,10.2,3.869,15.8,5c5.6,1.134,11.531,1.7,17.8,1.7c10.531,0,18.132-1.731,22.8-5.2   c4.666-3.466,7-8,7-13.6c0-4.931-1.6-8.7-4.8-11.3c-3.2-2.6-8.935-4.766-17.2-6.5l-22.6-4.6c-12.935-2.666-22.6-7.131-29-13.4   c-6.4-6.266-9.6-14.666-9.6-25.2c0-8.8,2.331-16.466,7-23c4.665-6.531,11.199-11.6,19.6-15.2s18.2-5.4,29.4-5.4   c10,0,19.266,1.435,27.8,4.3c8.531,2.869,15.665,6.969,21.399,12.3l-8,19.2c-5.734-4.8-12-8.365-18.8-10.7   c-6.8-2.332-14.399-3.5-22.8-3.5c-9.469,0-16.834,1.834-22.1,5.5c-5.27,3.668-7.9,8.7-7.9,15.1c0,4.934,1.631,8.869,4.9,11.8   c3.266,2.935,8.831,5.2,16.699,6.8l22.4,4.4c13.331,2.668,23.2,7.034,29.6,13.1c6.4,6.069,9.601,14.234,9.601,24.5   c0,8.4-2.269,15.769-6.8,22.1c-4.535,6.334-10.935,11.269-19.2,14.8C745.027,374.285,735.227,376.054,723.896,376.054z"/>
	<path fill="#FFFFFF" d="M837.896,376.054c-12,0-21.068-3.131-27.2-9.4c-6.134-6.266-9.199-15.666-9.199-28.2v-46.6h-19.4v-18.8   h19.4v-25.8l25-6.4v32.2h27v18.8h-27v45c0,6.935,1.331,11.8,4,14.6c2.665,2.8,6.331,4.2,11,4.2c2.531,0,4.699-0.2,6.5-0.6   c1.8-0.4,3.565-0.931,5.3-1.6v19.8c-2.269,0.931-4.769,1.631-7.5,2.1C843.062,375.819,840.427,376.054,837.896,376.054z"/>
	<path fill="#FFFFFF" d="M909.098,376.054c-10.4,0-19.4-2.131-27-6.4c-7.601-4.266-13.5-10.332-17.7-18.2   c-4.2-7.866-6.3-17.2-6.3-28c0-10.8,2.1-20.1,6.3-27.9s10.1-13.831,17.7-18.1c7.6-4.266,16.6-6.4,27-6.4   c10.399,0,19.431,2.134,27.1,6.4c7.666,4.269,13.601,10.3,17.8,18.1c4.2,7.8,6.301,17.1,6.301,27.9c0,10.8-2.101,20.134-6.301,28   c-4.199,7.869-10.134,13.935-17.8,18.2C928.528,373.922,919.497,376.054,909.098,376.054z M909.098,356.854   c7.865,0,14.131-2.766,18.8-8.3c4.666-5.531,7-13.9,7-25.1c0-11.2-2.334-19.531-7-25c-4.669-5.465-10.935-8.2-18.8-8.2   c-7.869,0-14.135,2.734-18.8,8.2c-4.669,5.469-7,13.8-7,25c0,11.2,2.331,19.569,7,25.1   C894.963,354.088,901.229,356.854,909.098,356.854z"/>
	<path fill="#FFFFFF" d="M975.896,417.254v-119c0-4.131-0.134-8.332-0.399-12.6c-0.269-4.266-0.669-8.466-1.2-12.6h24.2l2.2,21.2   h-2.2c2-7.066,6.231-12.7,12.7-16.9c6.465-4.2,13.965-6.3,22.5-6.3c8.931,0,16.73,2.1,23.399,6.3c6.666,4.2,11.866,10.2,15.601,18   c3.73,7.8,5.6,17.169,5.6,28.1c0,10.935-1.869,20.334-5.6,28.2c-3.734,7.869-8.935,13.9-15.601,18.1   c-6.669,4.2-14.469,6.3-23.399,6.3c-8.4,0-15.801-2.065-22.2-6.2c-6.4-4.131-10.669-9.666-12.8-16.6h2.199v64H975.896z    M1026.697,356.854c8,0,14.399-2.766,19.199-8.3c4.801-5.531,7.2-13.9,7.2-25.1c0-11.2-2.399-19.531-7.2-25   c-4.8-5.465-11.199-8.2-19.199-8.2c-7.869,0-14.2,2.734-19,8.2c-4.801,5.469-7.2,13.8-7.2,25c0,11.2,2.399,19.569,7.2,25.1   C1012.497,354.088,1018.828,356.854,1026.697,356.854z"/>
</g>
<linearGradient id="SVGID_1_" gradientUnits="userSpaceOnUse" x1="606.5356" y1="382.0537" x2="606.5356" y2="261.73">
	<stop offset="0" style="stop-color:#EE335E"/>
	<stop offset="1" style="stop-color:#EE1D42"/>
</linearGradient>
<path fill-rule="evenodd" clip-rule="evenodd" fill="url(#SVGID_1_)" d="M606.43,262.323c16.32,0,45.033-3.015,52.599,4.551  c9.408,9.407,7.267,38.572,7.267,55.314c0,33.063-26.803,59.865-59.865,59.865s-59.864-26.803-59.864-59.865  C546.566,289.125,573.368,262.323,606.43,262.323z"/>
<path fill-rule="evenodd" clip-rule="evenodd" fill="#FFFFFF" d="M519.795,440.57c-13.666,10.613-27.203,21.398-41.068,31.744  c-4.793,3.576-10.272,3.285-15.13-0.936c-2.449,13.498,11.202,25.057,25.234,21.885c8.906-2.014,15.902-7.215,22.883-12.686  c7.837-6.141,15.42-12.893,24.063-17.654c15.14-8.342,25.636-7.639,38.9,2.48c6.698,5.111,9.465,12.871,10.167,20.982  c1.377,15.875-2.756,30.65-10.233,44.576c-1.442,2.688-3.265,4.98-6.67,3.172c-3.478-1.848-2.313-4.52-0.917-7.234  c5.198-10.107,9.332-20.58,10.488-32.018c0.729-7.213-0.631-13.959-4.932-19.885c-5.978-8.24-15.319-11.027-25.847-7.789  c-11.963,3.678-21.014,11.82-30.333,19.652c-8.977,7.545-18.63,13.742-30.77,15.416c-15.06,2.078-38.339-16.895-29.533-35.875  c0.438-0.945,0.795-2.432,0.36-3.195c-2.781-4.883-0.088-8.475,2.363-12.348c5.374-8.488,12.09-12.762,22.954-11.719  c25.159,0.279,25.159,0.279,37.752,0.279C519.618,439.803,519.707,440.186,519.795,440.57z"/>
<path fill-rule="evenodd" clip-rule="evenodd" fill="#FFFFFF" d="M494.614,407.052c9.673-11.369,18.663-22.247,28.102-32.721  c1.558-1.728,5.061-2.261,7.7-2.356c9.717-0.353,9.932-0.202,9.648-10.063c-0.166-5.783,0.655-10.895,5.795-14.988  c6.287,20.841,19.681,34.476,41.505,40.385c-8.657,6.722-16.845,13.148-25.144,19.43c-0.941,0.713-2.503,0.839-3.778,0.842  c-20.459,0.045-40.918,0.028-61.377,0.01C496.616,407.589,496.167,407.401,494.614,407.052z"/>
<g id="play">
	<g>
		<path fill="#010101" d="M589.857,295.489c-0.933-0.534-1.942-0.09-1.942,0.985v50.835c0,1.075,1.009,1.52,1.942,0.985    l44.628-25.433c0.936-0.534,0.875-1.406-0.059-1.94L589.857,295.489z"/>
		<path fill="#010101" d="M589.059,350.478L589.059,350.478c-1.767,0-3.099-1.364-3.099-3.168v-50.835    c0-1.805,1.332-3.168,3.099-3.168c0.604,0,1.215,0.167,1.768,0.485l44.567,25.432c1.092,0.624,1.717,1.609,1.717,2.702    c0,1.07-0.605,2.032-1.655,2.632l-44.631,25.437C590.274,350.309,589.664,350.478,589.059,350.478z M589.871,297.747v48.291    l42.339-24.129L589.871,297.747z"/>
	</g>
</g>
<linearGradient id="SVGID_2_" gradientUnits="userSpaceOnUse" x1="893.5781" y1="422.9697" x2="909.6387" y2="422.9697">
	<stop offset="0" style="stop-color:#EE335E"/>
	<stop offset="1" style="stop-color:#EE1D42"/>
</linearGradient>
<path fill-rule="evenodd" clip-rule="evenodd" fill="url(#SVGID_2_)" d="M909.639,422.53c0,0.324,0,0.648,0,0.972  c-0.01,0.04-0.022,0.079-0.029,0.119c-0.061,0.386-0.096,0.777-0.183,1.157c-0.729,3.187-3.36,5.627-6.592,6.126  c-0.221,0.033-0.441,0.064-0.662,0.096c-0.365,0-0.731,0-1.098,0c-0.19-0.025-0.381-0.046-0.571-0.073  c-1.584-0.231-2.987-0.862-4.187-1.925c-1.456-1.288-2.343-2.896-2.646-4.82c-0.035-0.226-0.062-0.453-0.093-0.679  c0-0.334,0-0.669,0-1.003c0.01-0.056,0.023-0.112,0.027-0.168c0.053-0.696,0.194-1.374,0.431-2.03  c0.522-1.456,1.392-2.669,2.602-3.631c1.053-0.837,2.245-1.377,3.573-1.605c0.287-0.049,0.576-0.084,0.864-0.125  c0.355,0,0.711,0,1.066,0c0.045,0.01,0.09,0.025,0.136,0.029c1.065,0.082,2.071,0.372,3.017,0.867  c1.711,0.897,2.941,2.248,3.712,4.014c0.271,0.618,0.452,1.266,0.54,1.937C909.579,422.034,909.607,422.282,909.639,422.53z   M905.37,419.561c0.008-0.036,0.021-0.09,0.035-0.147c-0.055-0.024-0.104-0.046-0.153-0.067c0.012-0.078,0.011-0.149,0.035-0.21  c0.02-0.047,0.073-0.114,0.111-0.113c0.234,0.001,0.364-0.132,0.479-0.313c0.04-0.063,0.132-0.12,0.207-0.129  c0.156-0.019,0.315-0.006,0.481-0.006c-0.019-0.116-0.035-0.216-0.054-0.329c-0.109,0.039-0.2,0.072-0.264,0.094  c-0.082-0.097-0.137-0.205-0.225-0.254c-0.113-0.063-0.168-0.168-0.067-0.257c0.092-0.08,0.212-0.124,0.314-0.191  c0.074-0.05,0.139-0.113,0.213-0.174c-3.054-2.669-7.063-2.118-9.136-0.464c0.297,0.028,0.604,0.04,0.832,0.285  c0.009,0.009,0.03,0.007,0.046,0.007c0.13,0,0.26,0,0.409,0c-0.096-0.249-0.318-0.089-0.452-0.172  c0.08-0.165,0.062-0.194-0.133-0.196c-0.064,0-0.128,0-0.192,0c0.111-0.123,0.223-0.216,0.345-0.294  c0.146-0.092,0.463-0.028,0.558,0.103c0.137,0.187,0.362,0.211,0.525,0.044c0.08-0.082,0.144-0.087,0.218-0.004  c-0.136,0.22-0.328,0.322-0.602,0.258c0.016,0.103,0.027,0.178,0.041,0.26c0.088,0,0.166,0.004,0.243-0.001  c0.065-0.004,0.171,0.001,0.188-0.033c0.056-0.109,0.146-0.11,0.236-0.11c0.137,0,0.174-0.06,0.139-0.183  c-0.052-0.015-0.099-0.029-0.145-0.042c0.063-0.203,0.386-0.273,0.644-0.152c-0.209,0.235-0.251,0.305-0.188,0.357  c0.065,0.054,0.165,0.066,0.265,0.102c0-0.115-0.004-0.188,0.002-0.26c0.003-0.038,0.013-0.095,0.038-0.107  c0.101-0.052,0.205-0.098,0.313-0.132c0.308-0.098,0.575,0.026,0.852,0.148c0.167,0.074,0.275,0.149,0.237,0.346  c-0.001,0.009,0.008,0.019,0.012,0.028c0.064,0.019,0.128,0.039,0.191,0.058c-0.031,0.155-0.106,0.239-0.271,0.208  c-0.097-0.019-0.159,0.019-0.184,0.119c-0.01,0.042-0.036,0.081-0.056,0.122c-0.232-0.056-0.451-0.108-0.705-0.169  c0.115-0.063,0.197-0.107,0.278-0.151c0.086-0.047,0.172-0.093,0.285-0.155c-0.096-0.065-0.171-0.16-0.245-0.159  c-0.162,0.001-0.347,0.013-0.479,0.091c-0.126,0.074-0.217,0.202-0.418,0.164c0.05,0.084,0.078,0.134,0.103,0.174  c-0.115,0.064-0.227,0.125-0.351,0.193c-0.027-0.106-0.043-0.169-0.062-0.24c-0.118,0.04-0.233,0.063-0.333,0.116  c-0.211,0.112-0.414,0.239-0.611,0.354c-0.002,0.435,0.345,0.395,0.613,0.456c0,0.139,0,0.263,0,0.385  c0.132,0.039,0.188-0.033,0.219-0.129c0.049-0.145,0.131-0.245,0.292-0.264c0.16-0.019,0.224-0.107,0.194-0.266  c-0.008-0.041,0.006-0.085-0.003-0.125c-0.036-0.172,0.079-0.263,0.203-0.307c0.08-0.029,0.189,0.016,0.283,0.036  c0.272,0.06,0.271,0.061,0.236,0.34c-0.002,0.008,0.005,0.018,0.021,0.067c0.163-0.062,0.325-0.124,0.503-0.191  c0,0.081,0.004,0.143-0.001,0.206c-0.011,0.15,0.033,0.267,0.187,0.318c0.121,0.042,0.097,0.136,0.101,0.231  c0.004,0.113-0.078,0.117-0.147,0.147c-0.039,0.018-0.074,0.046-0.111,0.07c0.035,0.033,0.068,0.068,0.105,0.097  c0.024,0.019,0.056,0.03,0.085,0.039c0.123,0.038,0.167,0.112,0.104,0.258c-0.112-0.03-0.226-0.058-0.338-0.092  c-0.188-0.057-0.191-0.08-0.074-0.246c0.021-0.031,0.002-0.091,0.001-0.138c-0.036,0.013-0.084,0.016-0.108,0.041  c-0.101,0.099-0.298,0.082-0.404,0.001c-0.063-0.048-0.177-0.035-0.268-0.037c-0.014,0-0.041,0.068-0.039,0.104  c0.002,0.025,0.036,0.059,0.063,0.07c0.053,0.024,0.111,0.036,0.179,0.056c-0.045,0.052-0.079,0.09-0.121,0.138  c-0.119-0.132-0.212-0.077-0.311,0.028c-0.109,0.116-0.215,0.254-0.352,0.323c-0.287,0.143-0.484,0.376-0.696,0.598  c-0.023,0.025-0.05,0.064-0.048,0.094c0.011,0.134-0.073,0.195-0.172,0.253c-0.09,0.053-0.176,0.113-0.262,0.172  c-0.188,0.127-0.317,0.283-0.258,0.532c0.011,0.047,0.001,0.099,0.001,0.157c-0.196-0.059-0.374-0.116-0.302-0.388  c-0.283,0-0.543,0-0.804,0.001c-0.035,0-0.073,0.007-0.106,0.018c-0.351,0.116-0.563,0.356-0.644,0.716  c-0.025,0.114,0.028,0.377,0.104,0.396c0.142,0.033,0.289,0.097,0.436-0.008c0.146-0.105,0.3-0.201,0.453-0.302  c0.149,0.205-0.063,0.333-0.084,0.5c0.136,0.026,0.267,0.051,0.404,0.078c0.012,0.154,0.039,0.301,0.029,0.445  c-0.012,0.175,0.063,0.209,0.222,0.256c0.293,0.085,0.487,0.011,0.64-0.239c0.03-0.05,0.097-0.124,0.133-0.116  c0.185,0.037,0.399-0.009,0.528,0.199c0.095,0.151,0.452,0.119,0.53-0.037c0.201,0.03,0.297,0.182,0.376,0.34  c0.073,0.144,0.173,0.195,0.334,0.186c0.252-0.014,0.34,0.057,0.409,0.295c0.023,0.079,0.031,0.166,0.027,0.248  c-0.004,0.096,0.04,0.131,0.121,0.17c0.292,0.138,0.599,0.169,0.915,0.159c0.056-0.001,0.142,0.016,0.162,0.053  c0.098,0.182,0.219,0.325,0.486,0.341c-0.073,0.153-0.111,0.285-0.19,0.385c-0.139,0.176-0.259,0.347-0.248,0.587  c0.005,0.129-0.04,0.259-0.039,0.388c0.002,0.148-0.072,0.229-0.174,0.323c-0.136,0.124-0.283,0.084-0.429,0.085  c-0.087,0.001-0.136,0.025-0.189,0.1c-0.091,0.126-0.068,0.252-0.022,0.371c0.064,0.168,0.025,0.291-0.093,0.421  c-0.129,0.143-0.264,0.292-0.345,0.464c-0.132,0.279-0.394,0.331-0.634,0.431c-0.072,0.03-0.146,0.056-0.218,0.085  c0.057,0.048,0.113,0.096,0.199,0.17c-0.055,0.08-0.122,0.176-0.212,0.307c0.108,0.043,0.212,0.084,0.333,0.133  c-0.017,0.078-0.027,0.172-0.058,0.258c-0.036,0.107-0.031,0.191,0.07,0.259c0.044,0.028,0.078,0.07,0.121,0.099  c0.096,0.064,0.12,0.135,0.053,0.212c-0.299,0.075-0.528-0.01-0.713-0.229c-0.03-0.035-0.078-0.058-0.104-0.095  c-0.191-0.285-0.459-0.548-0.375-0.935c0.047-0.215-0.021-0.368-0.149-0.527c-0.047-0.058-0.061-0.159-0.056-0.237  c0.01-0.148,0.045-0.295,0.071-0.456c-0.149,0.003-0.158-0.083-0.155-0.188c0.005-0.234,0.002-0.471,0.002-0.705  c0-0.425,0.006-0.436-0.353-0.655c-0.176-0.107-0.359-0.165-0.414-0.411c-0.03-0.133-0.174-0.244-0.273-0.356  c-0.149-0.167-0.288-0.333-0.185-0.58c0.011-0.027,0.009-0.063,0.006-0.093c-0.021-0.214,0.065-0.359,0.258-0.463  c0.157-0.085,0.177-0.223,0.099-0.476c-0.042-0.135-0.171-0.097-0.253-0.09c-0.235,0.02-0.403-0.071-0.524-0.262  c-0.146-0.229-0.361-0.333-0.621-0.368c-0.04-0.005-0.08-0.015-0.123-0.023c0-0.063,0-0.118,0-0.224  c-0.111,0.036-0.21,0.106-0.287,0.086c-0.275-0.068-0.604-0.033-0.757-0.372c-0.048-0.108-0.112-0.191-0.025-0.307  c0.018-0.022,0.001-0.088-0.021-0.121c-0.195-0.293-0.444-0.559-0.412-0.947c-0.071,0-0.115,0-0.157,0  c-0.02,0.283,0.086,0.512,0.24,0.732c0.052,0.072,0.055,0.178,0.08,0.269c-0.019,0.013-0.038,0.027-0.057,0.041  c-0.083-0.039-0.197-0.056-0.246-0.121c-0.182-0.245-0.327-0.51-0.267-0.837c0.006-0.03,0.01-0.067-0.002-0.093  c-0.021-0.047-0.047-0.115-0.085-0.126c-0.194-0.056-0.243-0.184-0.214-0.365c0.003-0.021-0.005-0.042-0.011-0.089  c-1.346,3.043-0.378,7.451,3.537,9.406c3.505,1.752,7.27,0.283,8.926-1.949c-0.066-0.006-0.132-0.011-0.206-0.018  c0-0.137,0.005-0.262-0.003-0.386c-0.004-0.058-0.019-0.132-0.057-0.17c-0.2-0.202-0.258-0.443-0.222-0.716  c0.018-0.125-0.026-0.217-0.121-0.301c-0.12-0.107-0.141-0.265-0.066-0.411c0.056-0.112,0.127-0.218,0.17-0.334  c0.023-0.063,0.026-0.153-0.004-0.21c-0.121-0.237-0.264-0.462-0.386-0.699c-0.038-0.072-0.051-0.166-0.049-0.249  c0.004-0.155,0.026-0.309,0.042-0.476c-0.085-0.009-0.158-0.012-0.229-0.027c-0.095-0.019-0.205-0.023-0.277-0.077  c-0.198-0.148-0.351-0.16-0.552-0.017c-0.042,0.029-0.105,0.035-0.159,0.041c-0.168,0.021-0.335,0.04-0.503,0.053  c-0.14,0.01-0.27,0.018-0.375-0.123c-0.161-0.212-0.349-0.403-0.524-0.604c-0.063-0.073-0.098-0.621-0.045-0.696  c0.006-0.008,0.019-0.012,0.023-0.02c0.045-0.076,0.088-0.152,0.154-0.269c-0.198,0.03-0.215-0.066-0.246-0.165  c-0.036-0.113,0.05-0.136,0.107-0.179c0.159-0.119,0.313-0.246,0.483-0.346c0.159-0.094,0.23-0.208,0.202-0.393  c-0.009-0.058-0.007-0.157,0.024-0.174c0.164-0.088,0.299-0.244,0.521-0.214c0.13,0.017,0.29,0.029,0.396-0.03  c0.327-0.182,0.681-0.096,1.035-0.178c0,0.165,0,0.298,0,0.435c0.16,0.04,0.309,0.071,0.453,0.116  c0.144,0.044,0.284,0.102,0.438,0.158c0.007-0.095,0.013-0.166,0.018-0.234c0.32-0.076,0.343-0.081,0.581,0.113  c0.24,0.196,0.5,0.073,0.749,0.106c0.006-0.044,0.012-0.055,0.009-0.063c-0.042-0.129-0.094-0.255-0.126-0.386  c-0.033-0.133-0.096-0.182-0.24-0.169c-0.266,0.022-0.389-0.1-0.415-0.376c-0.005-0.048-0.019-0.096-0.028-0.143  c-0.018-0.007-0.034-0.013-0.051-0.02c-0.055,0.072-0.123,0.138-0.16,0.218c-0.041,0.085-0.052,0.184-0.087,0.321  c-0.113-0.148-0.266-0.257-0.271-0.375c-0.012-0.213-0.131-0.315-0.259-0.448c-0.133-0.138-0.271-0.138-0.427-0.114  c-0.015,0.356,0.345,0.355,0.493,0.526c-0.021,0.068-0.057,0.122-0.05,0.168c0.024,0.149-0.078,0.185-0.181,0.199  c-0.113,0.016-0.211-0.024-0.238-0.157c0.097-0.04,0.234,0.073,0.279-0.085c-0.187-0.204-0.501-0.248-0.612-0.538  c-0.059,0.051-0.105,0.101-0.161,0.139c-0.034,0.024-0.091,0.052-0.122,0.04c-0.145-0.06-0.223,0.01-0.293,0.123  c-0.047,0.074-0.129,0.134-0.156,0.213c-0.116,0.333-0.381,0.325-0.655,0.303c-0.005,0-0.011,0-0.016,0  c-0.176-0.009-0.262-0.084-0.289-0.256c-0.01-0.062-0.019-0.124-0.025-0.186c-0.017-0.14,0.06-0.264,0.195-0.277  C904.959,419.564,905.154,419.567,905.37,419.561z M907.313,418.315c-0.104-0.118-0.209-0.236-0.315-0.354  c0.054,0.286-0.116,0.402-0.352,0.497c0.048,0.046,0.096,0.085,0.142,0.083C906.983,418.531,907.231,418.642,907.313,418.315z   M898.965,419.296c0.006-0.155-0.048-0.238-0.139-0.245c-0.233-0.02-0.396,0.055-0.424,0.219  C898.589,419.278,898.771,419.287,898.965,419.296z M898.488,419.77c0.092-0.132,0.182-0.261,0.278-0.4  c-0.209-0.021-0.354,0.058-0.39,0.2C898.356,419.656,898.332,419.751,898.488,419.77z M897.289,417.386c0,0.042,0,0.085,0,0.128  c0.274,0.03,0.454,0.05,0.407-0.208C897.563,417.332,897.431,417.358,897.289,417.386z M897.949,418.563  c0.057,0.115,0.093,0.188,0.122,0.247c0.205,0.016,0.223-0.118,0.248-0.301C898.19,418.527,898.083,418.543,897.949,418.563z   M899.12,419.651c-0.252,0.036-0.306,0.08-0.297,0.233C899.07,419.906,899.131,419.86,899.12,419.651z M897.315,417.806  c0,0.017-0.001,0.034-0.001,0.051c0.114,0.067,0.24,0.03,0.359,0.008c0.021-0.003,0.028-0.079,0.053-0.159  C897.562,417.746,897.438,417.776,897.315,417.806z M899.538,419.73c0.015-0.225-0.176-0.149-0.27-0.219  C899.243,419.725,899.269,419.746,899.538,419.73z M899.173,419.365c-0.076,0-0.146,0-0.222,0c0,0.075,0,0.144,0,0.221  C899.082,419.56,899.208,419.55,899.173,419.365z M908.335,419.976c-0.057-0.119-0.105-0.221-0.155-0.323  c-0.012,0.002-0.023,0.006-0.035,0.009c0,0.108,0,0.216,0,0.333C908.204,419.988,908.259,419.983,908.335,419.976z"/>
<linearGradient id="SVGID_3_" gradientUnits="userSpaceOnUse" x1="908.0029" y1="417.4937" x2="908.707" y2="417.4937">
	<stop offset="0" style="stop-color:#EE335E"/>
	<stop offset="1" style="stop-color:#EE1D42"/>
</linearGradient>
<path fill-rule="evenodd" clip-rule="evenodd" fill="url(#SVGID_3_)" d="M908.093,417.924c0.01-0.149-0.024-0.295,0.22-0.287  c-0.043-0.072-0.063-0.125-0.099-0.161c-0.04-0.04-0.103-0.057-0.141-0.097c-0.035-0.037-0.079-0.099-0.069-0.136  c0.016-0.056,0.066-0.112,0.117-0.145c0.044-0.028,0.109-0.025,0.168-0.036c0.049,0.131,0.08,0.27,0.149,0.387  c0.064,0.11,0.169,0.197,0.269,0.309C908.582,418.006,908.326,417.896,908.093,417.924z"/>
<linearGradient id="SVGID_4_" gradientUnits="userSpaceOnUse" x1="907.6064" y1="417.6152" x2="908.0811" y2="417.6152">
	<stop offset="0" style="stop-color:#EE335E"/>
	<stop offset="1" style="stop-color:#EE1D42"/>
</linearGradient>
<path fill-rule="evenodd" clip-rule="evenodd" fill="url(#SVGID_4_)" d="M907.61,417.813c-0.03-0.205,0.103-0.404,0.289-0.413  c0.061-0.003,0.157,0.035,0.177,0.08c0.019,0.043-0.025,0.144-0.072,0.177C907.89,417.74,907.787,417.88,907.61,417.813z"/>
<path fill-rule="evenodd" clip-rule="evenodd" fill="#454545" d="M902.992,416.407c-0.205,0.215-0.348,0.401-0.527,0.54  c-0.25,0.191-0.475,0.069-0.522-0.193c0.226-0.134,0.42-0.275,0.635-0.366C902.681,416.343,902.824,416.395,902.992,416.407z"/>
</svg>